<svg xmlns="http://www.w3.org/2000/svg" viewBox="0 0 1100 400" role="img" aria-label="BRAVA+">
  <title>BRAVA+ — Concept A (Premium 3D)</title>
  <text x="60" y="305" font-family="'Inter','Helvetica Neue','Arial Black',sans-serif" font-weight="900" font-size="210" fill="#0A0A0A" letter-spacing="-6">BRAVA</text>
  <g transform="translate(840,200)">
    <!-- Blue offset shadow -->
    <path d="M 52 -52 L 52 -108 A 52 52 0 0 0 -52 -108 L -52 -52 L -108 -52 A 52 52 0 0 0 -108 52 L -52 52 L -52 108 A 52 52 0 0 0 52 108 L 52 52 L 108 52 A 52 52 0 0 0 108 -52 L 52 -52 Z"
          transform="translate(14,14)" fill="#1E3A8A"/>
    <!-- Yellow main -->
    <path d="M 52 -52 L 52 -108 A 52 52 0 0 0 -52 -108 L -52 -52 L -108 -52 A 52 52 0 0 0 -108 52 L -52 52 L -52 108 A 52 52 0 0 0 52 108 L 52 52 L 108 52 A 52 52 0 0 0 108 -52 L 52 -52 Z"
          fill="#FBBF24" stroke="#0A0A0A" stroke-width="4"/>
  </g>
</svg>
